<svg xmlns="http://www.w3.org/2000/svg" xmlns:xlink="http://www.w3.org/1999/xlink" aria-hidden="true" role="img" width="27" height="27" viewBox="0 0 48 48" style="color: rgb(74, 85, 101);"><defs><mask id="iconifyReact3685"><g fill="none" stroke="#fff" stroke-width="4"><path stroke-linecap="round" stroke-linejoin="round" d="M9 27h30l-4.687 17H13.686z"></path><path fill="#555" stroke-linecap="round" stroke-linejoin="round" d="M39 27H9c0-5.5 5.5-8 5.5-8c0-2 2-8 9.5-8s9.5 6 9.5 8c0 0 5.5 2.5 5.5 8"></path><path stroke-linecap="round" d="M6 27h36"></path><path d="M28 12a4 4 0 0 0-8 0"></path><path stroke-linecap="round" d="m24 8l4-4"></path><path d="M20 27v17m8-17v17"></path></g></mask></defs><path fill="currentColor" d="M0 0h48v48H0z" mask="url(#iconifyReact3685)"></path></svg>